<?xml version="1.0" standalone="no"?>
<!DOCTYPE svg PUBLIC "-//W3C//DTD SVG 20010904//EN"
 "http://www.w3.org/TR/2001/REC-SVG-20010904/DTD/svg10.dtd">
<svg version="1.0" xmlns="http://www.w3.org/2000/svg"
 width="500.000000pt" height="500.000000pt" viewBox="0 0 500.000000 500.000000"
 preserveAspectRatio="xMidYMid meet">
<metadata>
Created by potrace 1.16, written by Peter Selinger 2001-2019
</metadata>
<g transform="translate(0.000000,500.000000) scale(0.100000,-0.100000)"
fill="#000000" stroke="none">
<path d="M1349 3752 c-48 -31 -89 -96 -89 -140 0 -32 27 -92 53 -120 41 -45
76 -55 195 -60 l112 -5 0 -968 0 -969 -107 0 c-130 0 -178 -18 -218 -78 -36
-55 -41 -99 -17 -154 23 -52 69 -91 127 -107 55 -15 815 -15 870 0 88 24 154
111 141 187 -8 53 -52 111 -99 133 -35 16 -66 19 -194 19 l-153 0 0 375 0 375
235 0 234 0 48 -26 c264 -146 410 -328 790 -984 l49 -85 144 -3 c189 -4 234 5
289 62 35 35 44 53 48 89 7 61 -1 90 -39 133 -43 49 -83 64 -171 64 l-74 0
-98 163 c-187 307 -290 452 -408 574 -60 62 -114 113 -118 113 -5 0 25 -32 67
-72 135 -129 275 -322 469 -651 l80 -135 92 -3 c101 -4 128 -17 171 -79 26
-39 30 -106 7 -149 -20 -39 -69 -78 -113 -91 -42 -11 -321 -14 -338 -2 -6 4
-48 72 -94 152 -106 186 -192 325 -293 475 -107 159 -274 326 -407 408 l-94
57 -243 0 -243 0 0 -384 0 -385 168 -3 c161 -3 170 -4 205 -28 48 -33 81 -99
74 -147 -9 -51 -49 -107 -94 -129 -36 -18 -65 -19 -473 -19 -408 0 -437 1
-473 19 -45 22 -85 78 -94 129 -7 48 26 114 74 147 33 23 48 25 160 28 l123 4
0 979 0 979 -92 0 c-103 0 -158 12 -202 43 -31 22 -65 88 -66 126 0 44 37 105
82 134 l42 27 636 0 c520 0 648 -3 704 -15 80 -17 97 -14 34 6 -33 10 -192 14
-708 16 l-665 4 -46 -29z"/>
<path d="M1375 3746 c-44 -19 -82 -68 -90 -116 -10 -58 26 -127 80 -154 34
-18 59 -21 157 -21 l118 0 0 -992 0 -993 -115 0 c-130 0 -167 -10 -207 -58
-70 -84 -25 -211 87 -241 54 -15 810 -15 869 0 113 28 159 156 88 241 -43 51
-74 58 -252 58 l-160 0 0 398 0 397 252 -5 253 -5 65 -39 c36 -22 85 -55 110
-73 63 -47 194 -177 245 -243 68 -88 224 -330 325 -505 51 -88 104 -177 117
-198 l25 -39 166 4 c147 3 171 6 202 24 107 63 107 213 0 266 -25 13 -59 18
-116 18 l-81 0 -92 154 c-212 355 -352 544 -494 668 l-75 66 62 26 c206 88
372 250 442 432 35 91 44 248 20 344 -22 90 -86 215 -142 278 -25 29 -44 55
-42 58 10 9 117 -141 147 -206 50 -107 64 -180 58 -300 -2 -60 -12 -124 -21
-149 -9 -24 -14 -46 -12 -48 12 -13 39 106 43 195 11 212 -73 396 -257 565
-101 92 -299 201 -329 182 -6 -3 -44 1 -85 10 -103 21 -1313 22 -1361 1z m863
-1163 c270 5 359 15 432 47 24 10 24 10 -5 4 -16 -4 -57 -13 -90 -21 -41 -10
-147 -16 -332 -20 l-273 -5 0 421 0 422 359 -3 c198 -2 357 -1 354 2 -2 3
-165 7 -361 10 l-357 6 330 2 c366 2 405 -3 518 -59 81 -42 195 -152 233 -227
25 -50 29 -68 29 -142 0 -75 -3 -91 -30 -138 -71 -129 -244 -236 -465 -288
-46 -11 -146 -17 -347 -21 l-283 -5 2 448 3 449 2 -444 3 -443 278 5z"/>
</g>
</svg>
